<svg width="378" height="378" viewBox="0 0 378 378" fill="none" xmlns="http://www.w3.org/2000/svg">
<path d="M231.921 269.821V256.686C231.921 255.267 230.77 254.117 229.35 254.117H143.057C141.637 254.117 140.486 255.267 140.486 256.686V269.821C140.486 271.24 141.637 272.39 143.057 272.39H229.35C230.77 272.39 231.921 271.24 231.921 269.821Z" fill="#0A1045"/>
<path d="M231.921 269.821V256.686C231.921 255.267 230.77 254.117 229.35 254.117H143.057C141.637 254.117 140.486 255.267 140.486 256.686V269.821C140.486 271.24 141.637 272.39 143.057 272.39H229.35C230.77 272.39 231.921 271.24 231.921 269.821Z" stroke="#0A1045" stroke-width="0.531333" stroke-miterlimit="10"/>
<path d="M231.921 233.274V220.138C231.921 218.72 230.77 217.57 229.35 217.57H143.057C141.637 217.57 140.486 218.72 140.486 220.138V233.274C140.486 234.693 141.637 235.843 143.057 235.843H229.35C230.77 235.843 231.921 234.693 231.921 233.274Z" fill="#073A94"/>
<path d="M231.921 233.274V220.138C231.921 218.72 230.77 217.57 229.35 217.57H143.057C141.637 217.57 140.486 218.72 140.486 220.138V233.274C140.486 234.693 141.637 235.843 143.057 235.843H229.35C230.77 235.843 231.921 234.693 231.921 233.274Z" stroke="#073A94" stroke-width="0.531333" stroke-miterlimit="10"/>
<path d="M231.921 196.727V183.591C231.921 182.173 230.77 181.022 229.35 181.022H143.057C141.637 181.022 140.486 182.173 140.486 183.591V196.727C140.486 198.146 141.637 199.296 143.057 199.296H229.35C230.77 199.296 231.921 198.146 231.921 196.727Z" fill="#0A1045"/>
<path d="M231.921 196.727V183.591C231.921 182.173 230.77 181.022 229.35 181.022H143.057C141.637 181.022 140.486 182.173 140.486 183.591V196.727C140.486 198.146 141.637 199.296 143.057 199.296H229.35C230.77 199.296 231.921 198.146 231.921 196.727Z" stroke="#0A1045" stroke-width="0.531333" stroke-miterlimit="10"/>
<path d="M228.263 160.18V147.044C228.263 145.626 227.112 144.475 225.693 144.475H143.057C141.637 144.475 140.486 145.626 140.486 147.044V160.18C140.486 161.599 141.637 162.749 143.057 162.749H225.693C227.112 162.749 228.263 161.599 228.263 160.18Z" fill="#073A94"/>
<path d="M228.263 160.18V147.044C228.263 145.626 227.112 144.475 225.693 144.475H143.057C141.637 144.475 140.486 145.626 140.486 147.044V160.18C140.486 161.599 141.637 162.749 143.057 162.749H225.693C227.112 162.749 228.263 161.599 228.263 160.18Z" stroke="#073A94" stroke-width="0.531333" stroke-miterlimit="10"/>
<path d="M220.949 123.633V110.497C220.949 109.078 219.798 107.928 218.378 107.928H143.057C141.637 107.928 140.486 109.078 140.486 110.497V123.633C140.486 125.052 141.637 126.202 143.057 126.202H218.378C219.798 126.202 220.949 125.052 220.949 123.633Z" fill="#0A1045"/>
<path d="M220.949 123.633V110.497C220.949 109.078 219.798 107.928 218.378 107.928H143.057C141.637 107.928 140.486 109.078 140.486 110.497V123.633C140.486 125.052 141.637 126.202 143.057 126.202H218.378C219.798 126.202 220.949 125.052 220.949 123.633Z" stroke="#0A1045" stroke-width="0.531333" stroke-miterlimit="10"/>
<path d="M199.005 87.0858V73.9502C199.005 72.5314 197.854 71.3813 196.434 71.3813H143.057C141.637 71.3813 140.486 72.5314 140.486 73.9502V87.0858C140.486 88.5047 141.637 89.6548 143.057 89.6548H196.434C197.854 89.6548 199.005 88.5047 199.005 87.0858Z" fill="#073A94"/>
<path d="M199.005 87.0858V73.9502C199.005 72.5314 197.854 71.3813 196.434 71.3813H143.057C141.637 71.3813 140.486 72.5314 140.486 73.9502V87.0858C140.486 88.5047 141.637 89.6548 143.057 89.6548H196.434C197.854 89.6548 199.005 88.5047 199.005 87.0858Z" stroke="#073A94" stroke-width="0.531333" stroke-miterlimit="10"/>
<path d="M213.634 345.484C213.634 227.802 251.153 93.3578 140.486 53.1077C134.792 51.0367 131.856 44.7449 133.928 39.0547C135.506 34.7241 139.627 31.8405 144.239 31.8405C265.147 75.816 239.331 217.572 239.331 346.145L213.634 345.484Z" fill="#FFB940"/>
<path d="M213.634 345.484C213.634 227.802 251.153 93.3578 140.486 53.1077C134.792 51.0367 131.856 44.7449 133.928 39.0547C135.506 34.7241 139.627 31.8405 144.239 31.8405C265.147 75.816 239.331 217.572 239.331 346.145L213.634 345.484Z" stroke="#FFB940" stroke-width="0.531333" stroke-miterlimit="10"/>
<circle cx="189" cy="189" r="185.5" stroke="#FFB940" stroke-width="7" stroke-linecap="round" stroke-linejoin="round" stroke-dasharray="14 14"/>
<path d="M231.921 269.821V256.686C231.921 255.267 230.77 254.117 229.35 254.117H143.057C141.637 254.117 140.486 255.267 140.486 256.686V269.821C140.486 271.24 141.637 272.39 143.057 272.39H229.35C230.77 272.39 231.921 271.24 231.921 269.821Z" fill="#0A1045"/>
<path d="M231.921 269.821V256.686C231.921 255.267 230.77 254.117 229.35 254.117H143.057C141.637 254.117 140.486 255.267 140.486 256.686V269.821C140.486 271.24 141.637 272.39 143.057 272.39H229.35C230.77 272.39 231.921 271.24 231.921 269.821Z" stroke="#0A1045" stroke-width="0.531333" stroke-miterlimit="10"/>
<path d="M231.921 233.274V220.138C231.921 218.72 230.77 217.57 229.35 217.57H143.057C141.637 217.57 140.486 218.72 140.486 220.138V233.274C140.486 234.693 141.637 235.843 143.057 235.843H229.35C230.77 235.843 231.921 234.693 231.921 233.274Z" fill="#073A94"/>
<path d="M231.921 233.274V220.138C231.921 218.72 230.77 217.57 229.35 217.57H143.057C141.637 217.57 140.486 218.72 140.486 220.138V233.274C140.486 234.693 141.637 235.843 143.057 235.843H229.35C230.77 235.843 231.921 234.693 231.921 233.274Z" stroke="#073A94" stroke-width="0.531333" stroke-miterlimit="10"/>
<path d="M231.921 196.727V183.591C231.921 182.173 230.77 181.022 229.35 181.022H143.057C141.637 181.022 140.486 182.173 140.486 183.591V196.727C140.486 198.146 141.637 199.296 143.057 199.296H229.35C230.77 199.296 231.921 198.146 231.921 196.727Z" fill="#0A1045"/>
<path d="M231.921 196.727V183.591C231.921 182.173 230.77 181.022 229.35 181.022H143.057C141.637 181.022 140.486 182.173 140.486 183.591V196.727C140.486 198.146 141.637 199.296 143.057 199.296H229.35C230.77 199.296 231.921 198.146 231.921 196.727Z" stroke="#0A1045" stroke-width="0.531333" stroke-miterlimit="10"/>
<path d="M228.263 160.18V147.044C228.263 145.626 227.112 144.475 225.693 144.475H143.057C141.637 144.475 140.486 145.626 140.486 147.044V160.18C140.486 161.599 141.637 162.749 143.057 162.749H225.693C227.112 162.749 228.263 161.599 228.263 160.18Z" fill="#073A94"/>
<path d="M228.263 160.18V147.044C228.263 145.626 227.112 144.475 225.693 144.475H143.057C141.637 144.475 140.486 145.626 140.486 147.044V160.18C140.486 161.599 141.637 162.749 143.057 162.749H225.693C227.112 162.749 228.263 161.599 228.263 160.18Z" stroke="#073A94" stroke-width="0.531333" stroke-miterlimit="10"/>
<path d="M220.949 123.633V110.497C220.949 109.078 219.798 107.928 218.378 107.928H143.057C141.637 107.928 140.486 109.078 140.486 110.497V123.633C140.486 125.052 141.637 126.202 143.057 126.202H218.378C219.798 126.202 220.949 125.052 220.949 123.633Z" fill="#0A1045"/>
<path d="M220.949 123.633V110.497C220.949 109.078 219.798 107.928 218.378 107.928H143.057C141.637 107.928 140.486 109.078 140.486 110.497V123.633C140.486 125.052 141.637 126.202 143.057 126.202H218.378C219.798 126.202 220.949 125.052 220.949 123.633Z" stroke="#0A1045" stroke-width="0.531333" stroke-miterlimit="10"/>
<path d="M199.005 87.0858V73.9502C199.005 72.5314 197.854 71.3813 196.434 71.3813H143.057C141.637 71.3813 140.486 72.5314 140.486 73.9502V87.0858C140.486 88.5047 141.637 89.6548 143.057 89.6548H196.434C197.854 89.6548 199.005 88.5047 199.005 87.0858Z" fill="#073A94"/>
<path d="M199.005 87.0858V73.9502C199.005 72.5314 197.854 71.3813 196.434 71.3813H143.057C141.637 71.3813 140.486 72.5314 140.486 73.9502V87.0858C140.486 88.5047 141.637 89.6548 143.057 89.6548H196.434C197.854 89.6548 199.005 88.5047 199.005 87.0858Z" stroke="#073A94" stroke-width="0.531333" stroke-miterlimit="10"/>
<path d="M213.634 345.484C213.634 227.802 251.153 93.3578 140.486 53.1077C134.792 51.0367 131.856 44.7449 133.928 39.0547C135.506 34.7241 139.627 31.8405 144.239 31.8405C265.147 75.816 239.331 217.572 239.331 346.145L213.634 345.484Z" fill="#FFB940"/>
<path d="M213.634 345.484C213.634 227.802 251.153 93.3578 140.486 53.1077C134.792 51.0367 131.856 44.7449 133.928 39.0547C135.506 34.7241 139.627 31.8405 144.239 31.8405C265.147 75.816 239.331 217.572 239.331 346.145L213.634 345.484Z" stroke="#FFB940" stroke-width="0.531333" stroke-miterlimit="10"/>
</svg>
