<svg width="1288" height="444" viewBox="0 0 1288 444" fill="none" xmlns="http://www.w3.org/2000/svg">
<g clip-path="url(#clip0_9_2)">
<path d="M108.43 372.08V360.581C108.43 359.338 107.193 358.332 105.668 358.332H12.954C11.4285 358.332 10.1918 359.338 10.1918 360.581V372.08C10.1918 373.323 11.4285 374.329 12.954 374.329H105.668C107.193 374.329 108.43 373.323 108.43 372.08Z" fill="#0A1045"/>
<path d="M108.43 372.08V360.581C108.43 359.338 107.193 358.332 105.668 358.332H12.954C11.4285 358.332 10.1918 359.338 10.1918 360.581V372.08C10.1918 373.323 11.4285 374.329 12.954 374.329H105.668C107.193 374.329 108.43 373.323 108.43 372.08Z" stroke="#0A1045" stroke-width="0.531333" stroke-miterlimit="10"/>
<path d="M108.43 340.085V328.585C108.43 327.343 107.193 326.336 105.668 326.336H12.954C11.4285 326.336 10.1918 327.343 10.1918 328.585V340.085C10.1918 341.327 11.4285 342.334 12.954 342.334H105.668C107.193 342.334 108.43 341.327 108.43 340.085Z" fill="#073A94"/>
<path d="M108.43 340.085V328.585C108.43 327.343 107.193 326.336 105.668 326.336H12.954C11.4285 326.336 10.1918 327.343 10.1918 328.585V340.085C10.1918 341.327 11.4285 342.334 12.954 342.334H105.668C107.193 342.334 108.43 341.327 108.43 340.085Z" stroke="#073A94" stroke-width="0.531333" stroke-miterlimit="10"/>
<path d="M108.43 308.089V296.589C108.43 295.347 107.193 294.34 105.668 294.34H12.954C11.4285 294.34 10.1918 295.347 10.1918 296.589V308.089C10.1918 309.331 11.4285 310.338 12.954 310.338H105.668C107.193 310.338 108.43 309.331 108.43 308.089Z" fill="#0A1045"/>
<path d="M108.43 308.089V296.589C108.43 295.347 107.193 294.34 105.668 294.34H12.954C11.4285 294.34 10.1918 295.347 10.1918 296.589V308.089C10.1918 309.331 11.4285 310.338 12.954 310.338H105.668C107.193 310.338 108.43 309.331 108.43 308.089Z" stroke="#0A1045" stroke-width="0.531333" stroke-miterlimit="10"/>
<path d="M104.5 276.093V264.593C104.5 263.351 103.263 262.344 101.738 262.344H12.954C11.4285 262.344 10.1918 263.351 10.1918 264.593V276.093C10.1918 277.335 11.4285 278.342 12.954 278.342H101.738C103.263 278.342 104.5 277.335 104.5 276.093Z" fill="#073A94"/>
<path d="M104.5 276.093V264.593C104.5 263.351 103.263 262.344 101.738 262.344H12.954C11.4285 262.344 10.1918 263.351 10.1918 264.593V276.093C10.1918 277.335 11.4285 278.342 12.954 278.342H101.738C103.263 278.342 104.5 277.335 104.5 276.093Z" stroke="#073A94" stroke-width="0.531333" stroke-miterlimit="10"/>
<path d="M96.641 244.097V232.597C96.641 231.355 95.4044 230.348 93.8789 230.348H12.954C11.4285 230.348 10.1918 231.355 10.1918 232.597V244.097C10.1918 245.339 11.4285 246.346 12.954 246.346H93.8789C95.4044 246.346 96.641 245.339 96.641 244.097Z" fill="#0A1045"/>
<path d="M96.641 244.097V232.597C96.641 231.355 95.4044 230.348 93.8789 230.348H12.954C11.4285 230.348 10.1918 231.355 10.1918 232.597V244.097C10.1918 245.339 11.4285 246.346 12.954 246.346H93.8789C95.4044 246.346 96.641 245.339 96.641 244.097Z" stroke="#0A1045" stroke-width="0.531333" stroke-miterlimit="10"/>
<path d="M73.0643 212.101V200.602C73.0643 199.359 71.8277 198.353 70.3022 198.353H12.954C11.4285 198.353 10.1918 199.359 10.1918 200.602V212.101C10.1918 213.344 11.4285 214.35 12.954 214.35H70.3022C71.8277 214.35 73.0643 213.344 73.0643 212.101Z" fill="#073A94"/>
<path d="M73.0643 212.101V200.602C73.0643 199.359 71.8277 198.353 70.3022 198.353H12.954C11.4285 198.353 10.1918 199.359 10.1918 200.602V212.101C10.1918 213.344 11.4285 214.35 12.954 214.35H70.3022C71.8277 214.35 73.0643 213.344 73.0643 212.101Z" stroke="#073A94" stroke-width="0.531333" stroke-miterlimit="10"/>
<path d="M88.7822 438.321C88.7822 335.295 129.092 217.592 10.1919 182.355C4.07386 180.542 0.919477 175.033 3.1462 170.052C4.8408 166.26 9.26869 163.736 14.2239 163.736C144.128 202.235 116.391 326.338 116.391 438.9L88.7822 438.321Z" fill="#FFB940"/>
<path d="M88.7822 438.321C88.7822 335.295 129.092 217.592 10.1919 182.355C4.07386 180.542 0.919477 175.033 3.1462 170.052C4.8408 166.26 9.26869 163.736 14.2239 163.736C144.128 202.235 116.391 326.338 116.391 438.9L88.7822 438.321Z" stroke="#FFB940" stroke-width="0.531333" stroke-miterlimit="10"/>
</g>
<path d="M480.463 163.2V440H444.063V233.6L352.063 440H326.463L234.063 233.2V440H197.663V163.2H236.863L339.263 392L441.663 163.2H480.463ZM528.594 329.6C528.594 307.2 533.127 287.6 542.194 270.8C551.261 253.733 563.661 240.533 579.394 231.2C595.394 221.867 613.127 217.2 632.594 217.2C651.794 217.2 668.461 221.333 682.594 229.6C696.727 237.867 707.261 248.267 714.194 260.8V220.8H750.994V440H714.194V399.2C706.994 412 696.194 422.667 681.794 431.2C667.661 439.467 651.127 443.6 632.194 443.6C612.727 443.6 595.127 438.8 579.394 429.2C563.661 419.6 551.261 406.133 542.194 388.8C533.127 371.467 528.594 351.733 528.594 329.6ZM714.194 330C714.194 313.467 710.861 299.067 704.194 286.8C697.527 274.533 688.461 265.2 676.994 258.8C665.794 252.133 653.394 248.8 639.794 248.8C626.194 248.8 613.794 252 602.594 258.4C591.394 264.8 582.461 274.133 575.794 286.4C569.127 298.667 565.794 313.067 565.794 329.6C565.794 346.4 569.127 361.067 575.794 373.6C582.461 385.867 591.394 395.333 602.594 402C613.794 408.4 626.194 411.6 639.794 411.6C653.394 411.6 665.794 408.4 676.994 402C688.461 395.333 697.527 385.867 704.194 373.6C710.861 361.067 714.194 346.533 714.194 330ZM798.906 329.6C798.906 307.2 803.44 287.6 812.506 270.8C821.573 253.733 833.973 240.533 849.706 231.2C865.706 221.867 883.44 217.2 902.906 217.2C922.106 217.2 938.773 221.333 952.906 229.6C967.04 237.867 977.573 248.267 984.506 260.8V220.8H1021.31V440H984.506V399.2C977.306 412 966.506 422.667 952.106 431.2C937.973 439.467 921.44 443.6 902.506 443.6C883.04 443.6 865.44 438.8 849.706 429.2C833.973 419.6 821.573 406.133 812.506 388.8C803.44 371.467 798.906 351.733 798.906 329.6ZM984.506 330C984.506 313.467 981.173 299.067 974.506 286.8C967.84 274.533 958.773 265.2 947.306 258.8C936.106 252.133 923.706 248.8 910.106 248.8C896.506 248.8 884.106 252 872.906 258.4C861.706 264.8 852.773 274.133 846.106 286.4C839.44 298.667 836.106 313.067 836.106 329.6C836.106 346.4 839.44 361.067 846.106 373.6C852.773 385.867 861.706 395.333 872.906 402C884.106 408.4 896.506 411.6 910.106 411.6C923.706 411.6 936.106 408.4 947.306 402C958.773 395.333 967.84 385.867 974.506 373.6C981.173 361.067 984.506 346.533 984.506 330ZM1127.22 250.8V380C1127.22 390.667 1129.49 398.267 1134.02 402.8C1138.55 407.067 1146.42 409.2 1157.62 409.2H1184.42V440H1151.62C1131.35 440 1116.15 435.333 1106.02 426C1095.89 416.667 1090.82 401.333 1090.82 380V250.8H1062.42V220.8H1090.82V165.6H1127.22V220.8H1184.42V250.8H1127.22Z" fill="#FFB940"/>
<defs>
<clipPath id="clip0_9_2">
<rect width="145.044" height="276.648" fill="white" transform="translate(0 163)"/>
</clipPath>
</defs>
</svg>
