<svg width="1026" height="345" viewBox="0 0 1026 345" fill="none" xmlns="http://www.w3.org/2000/svg">
<g clip-path="url(#clip0_1_152)">
<path d="M88.3532 274.08V262.581C88.3532 261.338 87.3455 260.332 86.1025 260.332H10.5554C9.31241 260.332 8.30475 261.338 8.30475 262.581V274.08C8.30475 275.323 9.31241 276.329 10.5554 276.329H86.1025C87.3455 276.329 88.3532 275.323 88.3532 274.08Z" fill="#0A1045"/>
<path d="M88.3532 274.08V262.581C88.3532 261.338 87.3455 260.332 86.1025 260.332H10.5554C9.31241 260.332 8.30475 261.338 8.30475 262.581V274.08C8.30475 275.323 9.31241 276.329 10.5554 276.329H86.1025C87.3455 276.329 88.3532 275.323 88.3532 274.08Z" stroke="#0A1045" stroke-width="0.531333" stroke-miterlimit="10"/>
<path d="M88.3532 242.085V230.585C88.3532 229.343 87.3455 228.336 86.1025 228.336H10.5554C9.31241 228.336 8.30475 229.343 8.30475 230.585V242.085C8.30475 243.327 9.31241 244.334 10.5554 244.334H86.1025C87.3455 244.334 88.3532 243.327 88.3532 242.085Z" fill="#073A94"/>
<path d="M88.3532 242.085V230.585C88.3532 229.343 87.3455 228.336 86.1025 228.336H10.5554C9.31241 228.336 8.30475 229.343 8.30475 230.585V242.085C8.30475 243.327 9.31241 244.334 10.5554 244.334H86.1025C87.3455 244.334 88.3532 243.327 88.3532 242.085Z" stroke="#073A94" stroke-width="0.531333" stroke-miterlimit="10"/>
<path d="M88.3532 210.089V198.589C88.3532 197.347 87.3455 196.34 86.1025 196.34H10.5554C9.31241 196.34 8.30475 197.347 8.30475 198.589V210.089C8.30475 211.331 9.31241 212.338 10.5554 212.338H86.1025C87.3455 212.338 88.3532 211.331 88.3532 210.089Z" fill="#0A1045"/>
<path d="M88.3532 210.089V198.589C88.3532 197.347 87.3455 196.34 86.1025 196.34H10.5554C9.31241 196.34 8.30475 197.347 8.30475 198.589V210.089C8.30475 211.331 9.31241 212.338 10.5554 212.338H86.1025C87.3455 212.338 88.3532 211.331 88.3532 210.089Z" stroke="#0A1045" stroke-width="0.531333" stroke-miterlimit="10"/>
<path d="M85.1511 178.093V166.593C85.1511 165.351 84.1434 164.344 82.9003 164.344H10.5554C9.31241 164.344 8.30475 165.351 8.30475 166.593V178.093C8.30475 179.335 9.31241 180.342 10.5554 180.342H82.9003C84.1434 180.342 85.1511 179.335 85.1511 178.093Z" fill="#073A94"/>
<path d="M85.1511 178.093V166.593C85.1511 165.351 84.1434 164.344 82.9003 164.344H10.5554C9.31241 164.344 8.30475 165.351 8.30475 166.593V178.093C8.30475 179.335 9.31241 180.342 10.5554 180.342H82.9003C84.1434 180.342 85.1511 179.335 85.1511 178.093Z" stroke="#073A94" stroke-width="0.531333" stroke-miterlimit="10"/>
<path d="M78.7473 146.097V134.597C78.7473 133.355 77.7396 132.348 76.4966 132.348H10.5554C9.31241 132.348 8.30475 133.355 8.30475 134.597V146.097C8.30475 147.339 9.31241 148.346 10.5554 148.346H76.4966C77.7396 148.346 78.7473 147.339 78.7473 146.097Z" fill="#0A1045"/>
<path d="M78.7473 146.097V134.597C78.7473 133.355 77.7396 132.348 76.4966 132.348H10.5554C9.31241 132.348 8.30475 133.355 8.30475 134.597V146.097C8.30475 147.339 9.31241 148.346 10.5554 148.346H76.4966C77.7396 148.346 78.7473 147.339 78.7473 146.097Z" stroke="#0A1045" stroke-width="0.531333" stroke-miterlimit="10"/>
<path d="M59.536 114.101V102.602C59.536 101.359 58.5284 100.353 57.2853 100.353H10.5554C9.31241 100.353 8.30475 101.359 8.30475 102.602V114.101C8.30475 115.344 9.31241 116.35 10.5554 116.35H57.2853C58.5284 116.35 59.536 115.344 59.536 114.101Z" fill="#073A94"/>
<path d="M59.536 114.101V102.602C59.536 101.359 58.5284 100.353 57.2853 100.353H10.5554C9.31241 100.353 8.30475 101.359 8.30475 102.602V114.101C8.30475 115.344 9.31241 116.35 10.5554 116.35H57.2853C58.5284 116.35 59.536 115.344 59.536 114.101Z" stroke="#073A94" stroke-width="0.531333" stroke-miterlimit="10"/>
<path d="M72.3436 340.321C72.3436 237.295 105.19 119.592 8.30477 84.3546C3.31955 82.5416 0.749225 77.0333 2.56365 72.0517C3.94449 68.2604 7.55253 65.7359 11.5902 65.7359C117.442 104.235 94.8405 228.338 94.8405 340.9L72.3436 340.321Z" fill="#FFB940"/>
<path d="M72.3436 340.321C72.3436 237.295 105.19 119.592 8.30477 84.3546C3.31955 82.5416 0.749225 77.0333 2.56365 72.0517C3.94449 68.2604 7.55253 65.7359 11.5902 65.7359C117.442 104.235 94.8405 228.338 94.8405 340.9L72.3436 340.321Z" stroke="#FFB940" stroke-width="0.531333" stroke-miterlimit="10"/>
</g>
<path d="M485.6 341.4C483.733 341.4 480.667 341.267 476.4 341C472.133 340.733 467.733 340.467 463.2 340.2C458.667 339.933 454.267 339.667 450 339.4C445.733 339.133 442.667 339 440.8 339H433.2C431.333 339 428.267 339.133 424 339.4C419.733 339.667 415.333 339.933 410.8 340.2C406.267 340.467 401.867 340.733 397.6 341C393.333 341.267 390.267 341.4 388.4 341.4L387.2 339.8L388.4 332.6L390 331C394.267 331 398.267 330.867 402 330.6C406 330.067 409.067 328.867 411.2 327C413.067 325.133 414.8 322.733 416.4 319.8C418.267 316.867 419.2 311.667 419.2 304.2C419.2 302.333 419.2 300.2 419.2 297.8C419.2 295.133 419.067 291.933 418.8 288.2C418.8 284.467 418.667 279.933 418.4 274.6C418.133 269.267 417.733 262.6 417.2 254.6C415.067 226.6 413.333 204.333 412 187.8C410.933 171 410 157.933 409.2 148.6C408.4 139.267 407.733 132.6 407.2 128.6C406.933 124.6 406.667 121.267 406.4 118.6C404.533 123.4 401.6 130.867 397.6 141C393.6 150.867 388.933 162.333 383.6 175.4C378.533 188.2 373.067 201.933 367.2 216.6C361.333 231.267 355.467 245.8 349.6 260.2C344 274.6 338.533 288.2 333.2 301C328.133 313.8 323.733 324.733 320 333.8H301.2L221.2 119.4C220.933 122.067 220.667 124.867 220.4 127.8C220.133 130.733 219.867 134.333 219.6 138.6C219.333 142.6 218.933 147.4 218.4 153C218.133 158.333 217.733 165 217.2 173L211.6 246.6C210.8 255.667 210.267 263.133 210 269C209.733 274.867 209.467 279.933 209.2 284.2C208.933 288.467 208.8 292.067 208.8 295C208.8 297.933 208.8 301 208.8 304.2C208.8 311.667 209.6 316.867 211.2 319.8C213.067 322.733 215.067 325.133 217.2 327C219.333 328.867 221.733 330.067 224.4 330.6C227.333 330.867 230.933 331 235.2 331L236.8 332.6L238 339.8L237.2 341.4C235.333 341.4 232.533 341.267 228.8 341C225.333 340.733 221.733 340.467 218 340.2C214.267 339.933 210.533 339.667 206.8 339.4C203.333 339.133 200.667 339 198.8 339H191.2C189.333 339 186.267 339.133 182 339.4C178 339.667 173.6 339.933 168.8 340.2C164.267 340.467 159.867 340.733 155.6 341C151.6 341.267 148.667 341.4 146.8 341.4L146 339.8L147.2 332.6L149.6 331C153.6 331 157.467 330.867 161.2 330.6C164.933 330.067 168.133 328.867 170.8 327C172.933 325.133 175.067 322.733 177.2 319.8C179.6 316.867 181.333 311.667 182.4 304.2C182.667 302.333 182.933 300.2 183.2 297.8C183.467 295.133 183.733 291.933 184 288.2C184.533 284.467 185.067 279.933 185.6 274.6C186.133 269.267 186.667 262.6 187.2 254.6L192.8 173.4C193.6 164.067 194.133 156.2 194.4 149.8C194.933 143.4 195.2 137.933 195.2 133.4C195.467 128.867 195.6 125 195.6 121.8C195.867 118.6 196 115.4 196 112.2C196 104.733 194.8 99.5333 192.4 96.6C190.267 93.4 188.133 91 186 89.4C183.6 87.5333 180.533 86.4667 176.8 86.2C173.067 85.6667 169.067 85.4 164.8 85.4L162.8 83.8L161.6 76.6L162.4 75C164.267 75 167.333 75.1333 171.6 75.4C175.867 75.6666 180.267 75.9333 184.8 76.2C189.333 76.4667 193.733 76.7333 198 77C202.267 77.2667 205.333 77.4 207.2 77.4H221.2C223.333 77.4 226.267 77.2667 230 77C234 76.7333 237.2 76.3333 239.6 75.8L241.6 77C241.867 80.4667 242.8 85.1333 244.4 91C246.267 96.6 248.4 103 250.8 110.2C253.467 117.4 256.267 125.133 259.2 133.4C262.133 141.4 265.067 149.4 268 157.4L295.2 231.4C299.733 244.2 303.867 255.133 307.6 264.2C311.333 273 314.667 280.867 317.6 287.8C318.4 286.467 320.667 281.4 324.4 272.6C328.133 263.533 332.667 252.467 338 239.4C343.6 226.067 349.467 211.533 355.6 195.8C361.733 180.067 367.6 164.733 373.2 149.8C378.8 134.6 383.6 120.6 387.6 107.8C391.6 95 394.133 84.8666 395.2 77.4L397.2 75.8C399.333 76.3333 401.6 76.7333 404 77C406.4 77.2667 408.667 77.4 410.8 77.4H425.2C427.067 77.4 430.133 77.2667 434.4 77C438.667 76.7333 443.067 76.4667 447.6 76.2C452.133 75.9333 456.533 75.6666 460.8 75.4C465.067 75.1333 468.133 75 470 75L470.8 76.6L469.6 83.8L467.6 85.4C463.333 85.4 459.2 85.6667 455.2 86.2C451.467 86.4667 448.533 87.5333 446.4 89.4C444.267 91 442 93.4 439.6 96.6C437.467 99.8 436.4 105 436.4 112.2C436.4 115.933 436.4 119.4 436.4 122.6C436.667 125.8 436.8 129.533 436.8 133.8C437.067 138.067 437.333 143.267 437.6 149.4C438.133 155.533 438.8 163.4 439.6 173L444.4 246.6C445.2 256.2 445.733 264.067 446 270.2C446.533 276.067 446.933 281 447.2 285C447.733 289 448.133 292.467 448.4 295.4C448.933 298.067 449.467 301 450 304.2C451.067 311.667 452.667 316.867 454.8 319.8C456.933 322.733 459.067 325.133 461.2 327C463.6 328.867 466.667 330.067 470.4 330.6C474.4 330.867 478.533 331 482.8 331L484.8 332.6L486 339.8L485.6 341.4ZM626.147 336.2C626.947 333.267 627.48 328.867 627.747 323C628.28 317.133 628.947 311.667 629.747 306.6L629.347 305.4C625.88 310.2 621.747 314.867 616.947 319.4C612.147 323.933 606.813 328.067 600.947 331.8C595.347 335.267 589.213 338.067 582.547 340.2C576.147 342.333 569.347 343.4 562.147 343.4C553.88 343.4 546.547 341.933 540.147 339C533.747 336.067 528.413 332.2 524.147 327.4C519.88 322.6 516.68 317 514.547 310.6C512.413 304.2 511.347 297.533 511.347 290.6C511.347 280.733 513.613 272.2 518.147 265C522.68 257.533 528.68 251.4 536.147 246.6C543.08 242.333 551.213 238.867 560.547 236.2C570.147 233.533 579.347 231.667 588.147 230.6C597.213 229.267 605.347 228.467 612.547 228.2C619.747 227.667 624.547 227.4 626.947 227.4H632.547C632.28 217.533 631.747 209.8 630.947 204.2C630.147 198.333 629.08 193.533 627.747 189.8C624.813 181.8 619.747 176.067 612.547 172.6C605.347 168.867 596.68 167 586.547 167C582.28 167 577.613 167.4 572.547 168.2C567.747 169 563.08 170.467 558.547 172.6C554.28 174.733 550.547 177.8 547.347 181.8C544.147 185.533 542.28 190.467 541.747 196.6L540.147 197.8H531.347L527.747 168.2L528.947 165.8C530.28 164.2 533.08 162.467 537.347 160.6C541.613 158.733 546.547 157 552.147 155.4C558.013 153.533 564.413 152.067 571.347 151C578.547 149.667 585.613 149 592.547 149C602.147 149 611.08 150.333 619.347 153C627.613 155.4 634.68 159.133 640.547 164.2C646.68 169.267 651.48 175.667 654.947 183.4C658.413 190.867 660.147 199.667 660.147 209.8C660.147 221 660.013 231 659.747 239.8C659.747 248.333 659.613 256.333 659.347 263.8C659.08 271 658.813 278.2 658.547 285.4C658.547 292.333 658.547 299.8 658.547 307.8C659.08 313.933 659.747 318.467 660.547 321.4C661.347 324.067 662.68 326.067 664.547 327.4C666.68 329.533 669.747 330.867 673.747 331.4C678.013 331.667 682.28 331.8 686.547 331.8L688.147 333.4L688.547 339L688.147 340.6C683.347 340.067 678.147 339.667 672.547 339.4C666.947 339.133 661.48 339 656.147 339C646.013 339 636.813 339.4 628.547 340.2L626.147 336.2ZM626.147 293C626.947 291.667 627.747 290.067 628.547 288.2C629.613 286.333 630.28 284.067 630.547 281.4L632.547 241.4H628.947C618.28 241.4 607.613 242.067 596.947 243.4C586.28 244.467 576.68 246.733 568.147 250.2C559.88 253.667 553.08 258.467 547.747 264.6C542.413 270.733 539.747 278.6 539.747 288.2C539.747 298.333 542.68 306.467 548.547 312.6C554.413 318.467 562.013 321.4 571.347 321.4C576.947 321.4 582.547 320.467 588.147 318.6C593.747 316.733 598.947 314.333 603.747 311.4C608.813 308.467 613.213 305.4 616.947 302.2C620.947 299 624.013 295.933 626.147 293ZM824.584 336.2C825.384 333.267 825.918 328.867 826.184 323C826.718 317.133 827.384 311.667 828.184 306.6L827.784 305.4C824.318 310.2 820.184 314.867 815.384 319.4C810.584 323.933 805.251 328.067 799.384 331.8C793.784 335.267 787.651 338.067 780.984 340.2C774.584 342.333 767.784 343.4 760.584 343.4C752.318 343.4 744.984 341.933 738.584 339C732.184 336.067 726.851 332.2 722.584 327.4C718.318 322.6 715.118 317 712.984 310.6C710.851 304.2 709.784 297.533 709.784 290.6C709.784 280.733 712.051 272.2 716.584 265C721.118 257.533 727.118 251.4 734.584 246.6C741.518 242.333 749.651 238.867 758.984 236.2C768.584 233.533 777.784 231.667 786.584 230.6C795.651 229.267 803.784 228.467 810.984 228.2C818.184 227.667 822.984 227.4 825.384 227.4H830.984C830.718 217.533 830.184 209.8 829.384 204.2C828.584 198.333 827.518 193.533 826.184 189.8C823.251 181.8 818.184 176.067 810.984 172.6C803.784 168.867 795.118 167 784.984 167C780.718 167 776.051 167.4 770.984 168.2C766.184 169 761.518 170.467 756.984 172.6C752.718 174.733 748.984 177.8 745.784 181.8C742.584 185.533 740.718 190.467 740.184 196.6L738.584 197.8H729.784L726.184 168.2L727.384 165.8C728.718 164.2 731.518 162.467 735.784 160.6C740.051 158.733 744.984 157 750.584 155.4C756.451 153.533 762.851 152.067 769.784 151C776.984 149.667 784.051 149 790.984 149C800.584 149 809.518 150.333 817.784 153C826.051 155.4 833.118 159.133 838.984 164.2C845.118 169.267 849.918 175.667 853.384 183.4C856.851 190.867 858.584 199.667 858.584 209.8C858.584 221 858.451 231 858.184 239.8C858.184 248.333 858.051 256.333 857.784 263.8C857.518 271 857.251 278.2 856.984 285.4C856.984 292.333 856.984 299.8 856.984 307.8C857.518 313.933 858.184 318.467 858.984 321.4C859.784 324.067 861.118 326.067 862.984 327.4C865.118 329.533 868.184 330.867 872.184 331.4C876.451 331.667 880.718 331.8 884.984 331.8L886.584 333.4L886.984 339L886.584 340.6C881.784 340.067 876.584 339.667 870.984 339.4C865.384 339.133 859.918 339 854.584 339C844.451 339 835.251 339.4 826.984 340.2L824.584 336.2ZM824.584 293C825.384 291.667 826.184 290.067 826.984 288.2C828.051 286.333 828.718 284.067 828.984 281.4L830.984 241.4H827.384C816.718 241.4 806.051 242.067 795.384 243.4C784.718 244.467 775.118 246.733 766.584 250.2C758.318 253.667 751.518 258.467 746.184 264.6C740.851 270.733 738.184 278.6 738.184 288.2C738.184 298.333 741.118 306.467 746.984 312.6C752.851 318.467 760.451 321.4 769.784 321.4C775.384 321.4 780.984 320.467 786.584 318.6C792.184 316.733 797.384 314.333 802.184 311.4C807.251 308.467 811.651 305.4 815.384 302.2C819.384 299 822.451 295.933 824.584 293ZM1011.82 173.8H959.822C959.822 191.133 959.688 207.133 959.422 221.8C959.422 236.467 959.422 249.4 959.422 260.6C959.422 271.533 959.288 280.333 959.022 287C959.022 293.667 959.022 297.8 959.022 299.4C959.022 309.8 961.022 316.733 965.022 320.2C969.022 323.667 973.688 325.4 979.022 325.4C983.555 325.4 988.755 324.6 994.622 323C1000.76 321.133 1005.69 319.133 1009.42 317L1013.02 319.8L1009.42 331C1003.29 335.267 996.355 338.333 988.622 340.2C981.155 342.333 974.488 343.4 968.622 343.4C955.022 343.4 945.422 339.667 939.822 332.2C934.222 324.733 931.422 315.133 931.422 303.4C931.422 301 931.555 296.067 931.822 288.6C932.088 281.133 932.355 271.8 932.622 260.6C932.888 249.4 933.155 236.467 933.422 221.8C933.688 207.133 933.822 191.133 933.822 173.8H905.022L903.422 171.8V164.2L905.022 162.6L933.822 157C933.822 147.667 933.555 138.2 933.022 128.6C932.755 118.733 932.355 109.133 931.822 99.8L934.622 97.4L940.222 97C942.355 96.7333 945.822 96.2 950.622 95.4C955.422 94.6 958.755 93.6666 960.622 92.6L964.222 94.2C963.422 97.9333 962.755 102.333 962.222 107.4C961.688 112.2 961.155 117.4 960.622 123C960.355 128.6 960.088 134.333 959.822 140.2C959.822 146.067 959.822 151.667 959.822 157L1011.82 154.6L1013.82 156.2V171.8L1011.82 173.8Z" fill="#FFB940"/>
<defs>
<clipPath id="clip0_1_152">
<rect width="118.188" height="276.648" fill="white" transform="translate(0 65)"/>
</clipPath>
</defs>
</svg>
