<svg width="135" height="316" viewBox="0 0 135 316" fill="none" xmlns="http://www.w3.org/2000/svg">
<path d="M100.921 238.821V225.685C100.921 224.267 99.77 223.117 98.3502 223.117H12.0569C10.6371 223.117 9.48608 224.267 9.48608 225.685V238.821C9.48608 240.24 10.6371 241.39 12.0569 241.39H98.3502C99.77 241.39 100.921 240.24 100.921 238.821Z" fill="#0A1045"/>
<path d="M100.921 238.821V225.685C100.921 224.267 99.77 223.117 98.3502 223.117H12.0569C10.6371 223.117 9.48608 224.267 9.48608 225.685V238.821C9.48608 240.24 10.6371 241.39 12.0569 241.39H98.3502C99.77 241.39 100.921 240.24 100.921 238.821Z" stroke="#0A1045" stroke-width="0.531333" stroke-miterlimit="10"/>
<path d="M100.921 202.274V189.138C100.921 187.72 99.77 186.57 98.3502 186.57H12.0569C10.6371 186.57 9.48608 187.72 9.48608 189.138V202.274C9.48608 203.693 10.6371 204.843 12.0569 204.843H98.3502C99.77 204.843 100.921 203.693 100.921 202.274Z" fill="#073A94"/>
<path d="M100.921 202.274V189.138C100.921 187.72 99.77 186.57 98.3502 186.57H12.0569C10.6371 186.57 9.48608 187.72 9.48608 189.138V202.274C9.48608 203.693 10.6371 204.843 12.0569 204.843H98.3502C99.77 204.843 100.921 203.693 100.921 202.274Z" stroke="#073A94" stroke-width="0.531333" stroke-miterlimit="10"/>
<path d="M100.921 165.727V152.591C100.921 151.173 99.77 150.022 98.3502 150.022H12.0569C10.6371 150.022 9.48608 151.173 9.48608 152.591V165.727C9.48608 167.146 10.6371 168.296 12.0569 168.296H98.3502C99.77 168.296 100.921 167.146 100.921 165.727Z" fill="#0A1045"/>
<path d="M100.921 165.727V152.591C100.921 151.173 99.77 150.022 98.3502 150.022H12.0569C10.6371 150.022 9.48608 151.173 9.48608 152.591V165.727C9.48608 167.146 10.6371 168.296 12.0569 168.296H98.3502C99.77 168.296 100.921 167.146 100.921 165.727Z" stroke="#0A1045" stroke-width="0.531333" stroke-miterlimit="10"/>
<path d="M97.2634 129.18V116.044C97.2634 114.626 96.1124 113.475 94.6925 113.475H12.0569C10.6371 113.475 9.48608 114.626 9.48608 116.044V129.18C9.48608 130.599 10.6371 131.749 12.0569 131.749H94.6925C96.1124 131.749 97.2634 130.599 97.2634 129.18Z" fill="#073A94"/>
<path d="M97.2634 129.18V116.044C97.2634 114.626 96.1124 113.475 94.6925 113.475H12.0569C10.6371 113.475 9.48608 114.626 9.48608 116.044V129.18C9.48608 130.599 10.6371 131.749 12.0569 131.749H94.6925C96.1124 131.749 97.2634 130.599 97.2634 129.18Z" stroke="#073A94" stroke-width="0.531333" stroke-miterlimit="10"/>
<path d="M89.9487 92.6329V79.4973C89.9487 78.0784 88.7977 76.9283 87.3779 76.9283H12.0569C10.6371 76.9283 9.48608 78.0784 9.48608 79.4973V92.6329C9.48608 94.0517 10.6371 95.2018 12.0569 95.2018H87.3779C88.7977 95.2018 89.9487 94.0517 89.9487 92.6329Z" fill="#0A1045"/>
<path d="M89.9487 92.6329V79.4973C89.9487 78.0784 88.7977 76.9283 87.3779 76.9283H12.0569C10.6371 76.9283 9.48608 78.0784 9.48608 79.4973V92.6329C9.48608 94.0517 10.6371 95.2018 12.0569 95.2018H87.3779C88.7977 95.2018 89.9487 94.0517 89.9487 92.6329Z" stroke="#0A1045" stroke-width="0.531333" stroke-miterlimit="10"/>
<path d="M68.0047 56.0858V42.9502C68.0047 41.5314 66.8538 40.3813 65.4338 40.3813H12.0569C10.6371 40.3813 9.48608 41.5314 9.48608 42.9502V56.0858C9.48608 57.5047 10.6371 58.6548 12.0569 58.6548H65.4338C66.8538 58.6548 68.0047 57.5047 68.0047 56.0858Z" fill="#073A94"/>
<path d="M68.0047 56.0858V42.9502C68.0047 41.5314 66.8538 40.3813 65.4338 40.3813H12.0569C10.6371 40.3813 9.48608 41.5314 9.48608 42.9502V56.0858C9.48608 57.5047 10.6371 58.6548 12.0569 58.6548H65.4338C66.8538 58.6548 68.0047 57.5047 68.0047 56.0858Z" stroke="#073A94" stroke-width="0.531333" stroke-miterlimit="10"/>
<path d="M82.6341 314.484C82.6341 196.803 120.153 62.3578 9.48611 22.1077C3.79177 20.0367 0.855826 13.7449 2.92835 8.0547C4.5056 3.72413 8.62686 0.840529 13.2389 0.840529C134.147 44.816 108.331 186.572 108.331 315.145L82.6341 314.484Z" fill="#FFB940"/>
<path d="M82.6341 314.484C82.6341 196.803 120.153 62.3578 9.48611 22.1077C3.79177 20.0367 0.855826 13.7449 2.92835 8.0547C4.5056 3.72413 8.62686 0.840529 13.2389 0.840529C134.147 44.816 108.331 186.572 108.331 315.145L82.6341 314.484Z" stroke="#FFB940" stroke-width="0.531333" stroke-miterlimit="10"/>
</svg>
